<?xml version="1.0" encoding="UTF-8" standalone="no"?>
<svg 
    role="img" 
    xmlns="http://www.w3.org/2000/svg" 
    width="1000mm"
    height="1000mm"
    viewBox="0 0 1000 1000"
    style="max-width:1.6em; height: auto;">
    
    <path 
        id="path" 
        style="opacity:1;vector-effect:none;fill:#000000;fill-opacity:1;"
        d="M 499 50C 464 50 431 69 413 100C 413 100 13 788 13 788C -5 819 -5 857 13 888C 31 919 64 938 100 938C 100 938 900 938 900 938C 936 938 969 919 987 888C 1005 857 1005 819 987 788C 987 788 587 100 587 100C 570 70 539 52 505 50C 503 50 501 50 499 50C 499 50 499 50 499 50 M 0,0"
        transform="">
    </path>    
</svg>